<svg xmlns="http://www.w3.org/2000/svg" xmlns:xlink="http://www.w3.org/1999/xlink" xmlns:svgjs="http://svgjs.com/svgjs" id="SvgjsSvg1001" version="1.1" viewBox="-0.07 82.22 289.29 123.98"><defs id="SvgjsDefs1002"/><g id="SvgjsG1008"><svg xmlns="http://www.w3.org/2000/svg" version="1.0" viewBox="0 0 223 95" width="288" height="288"><g fill="#071c21" transform="matrix(.1 0 0 -.1 0 500)" class="color031634 svgShape"><path d="m-0.52748,4523.34156l0,-480l1120,0l1120,0l0,480l0,480l-1120,0l-1120,0l0,-480zm2210,0l0,-450l-1095,0l-1095,0l0,450l0,450l1095,0l1095,0l0,-450z" fill="#153b44" class="color000 svgShape"/><path d="M89.47252 4523.34156l0-390 415 0 415 0 0 390 0 390-415 0-415 0 0-390zm305 95c11-41 23-75 27-75 4 0 8 6 8 13 0 6 5 30 11 52l12 40 19-65c18-64 18-86-3-162-10-37-11-38-58-38l-49 0-11 43c-6 23-26 93-45 155l-34 112 52 0 53 0 18-75zm200-55c17-69 35-137 38-152 7-28 7-28-42-28-39 0-51 4-55 18-19 67-76 280-76 286 0 4 23 6 52 4l52-3 31-125zm135 123c1-23-75-272-80-266-4 5-15 38-24 76-15 62-15 72 0 132l16 65 44 0c24 0 44-3 44-7zM1059.47252 4638.34156l0-25 105 0 105 0 0 25 0 25-105 0-105 0 0-25zM1405.47252 4596.34156c39-101 39-101 13-105-13-2-25-11-27-20-3-15 4-18 33-18 22 0 38-6 41-15 5-12 25-15 93-15 82 0 88 1 100 24 11 20 11 29-5 55-10 17-21 31-24 31-3 0-20-23-38-51-18-28-35-49-38-46-2 2-24 53-48 113l-44 109-41 3-41 3 26-68zM1639.47252 4543.34156c80-120 80-120 120-120 22 0 40 2 40 5 0 3-34 57-77 120l-76 115-44 0-43 0 80-120zM1701.47252 4643.34156c-11-17-10-26 5-50 21-36 26-37 47-5 9 14 23 36 32 50l16 25-43 0c-34 0-47-5-57-20zM1819.47252 4638.34156c0-14 5-25 10-25 6 0 10-30 10-70 0-40-4-70-10-70-5 0-10-11-10-25 0-24 2-25 65-25 63 0 65 1 65 25 0 14-4 25-10 25-6 0-10 30-10 70 0 40 4 70 10 70 6 0 10 11 10 25 0 24-2 25-65 25-63 0-65-1-65-25z" fill="#153b44" class="color000 svgShape"/><path d="M1326.47252 4540.34156c-20-56-37-106-37-110 0-5 17-7 37-5 35 3 37 5 58 68 21 61 21 67 6 108-8 23-18 42-21 42-3 0-22-46-43-103zM1129.47252 4513.34156l0-90 40 0 40 0 0 90 0 90-40 0-40 0 0-90z" fill="#153b44" class="color000 svgShape"/></g></svg></g></svg>