<svg xmlns="http://www.w3.org/2000/svg" width="223" height="95" preserveAspectRatio="xMidYMid meet" version="1.0">

 <g>
  <title>Layer 1</title>
  <g id="svg_1" fill="#f7b731" transform="translate(0 500) scale(0.1 -0.1)">
   <path id="svg_2" d="m-0.52748,4523.34156l0,-480l1120,0l1120,0l0,480l0,480l-1120,0l-1120,0l0,-480zm2210,0l0,-450l-1095,0l-1095,0l0,450l0,450l1095,0l1095,0l0,-450z"/>
   <path id="svg_3" d="m89.47252,4523.34156l0,-390l415,0l415,0l0,390l0,390l-415,0l-415,0l0,-390zm305,95c11,-41 23,-75 27,-75c4,0 8,6 8,13c0,6 5,30 11,52l12,40l19,-65c18,-64 18,-86 -3,-162c-10,-37 -11,-38 -58,-38l-49,0l-11,43c-6,23 -26,93 -45,155l-34,112l52,0l53,0l18,-75zm200,-55c17,-69 35,-137 38,-152c7,-28 7,-28 -42,-28c-39,0 -51,4 -55,18c-19,67 -76,280 -76,286c0,4 23,6 52,4l52,-3l31,-125zm135,123c1,-23 -75,-272 -80,-266c-4,5 -15,38 -24,76c-15,62 -15,72 0,132l16,65l44,0c24,0 44,-3 44,-7z"/>
   <path id="svg_4" d="m1059.47252,4638.34156l0,-25l105,0l105,0l0,25l0,25l-105,0l-105,0l0,-25z"/>
   <path id="svg_5" d="m1405.47252,4596.34156c39,-101 39,-101 13,-105c-13,-2 -25,-11 -27,-20c-3,-15 4,-18 33,-18c22,0 38,-6 41,-15c5,-12 25,-15 93,-15c82,0 88,1 100,24c11,20 11,29 -5,55c-10,17 -21,31 -24,31c-3,0 -20,-23 -38,-51c-18,-28 -35,-49 -38,-46c-2,2 -24,53 -48,113l-44,109l-41,3l-41,3l26,-68z"/>
   <path id="svg_6" d="m1639.47252,4543.34156c80,-120 80,-120 120,-120c22,0 40,2 40,5c0,3 -34,57 -77,120l-76,115l-44,0l-43,0l80,-120z"/>
   <path id="svg_7" d="m1701.47252,4643.34156c-11,-17 -10,-26 5,-50c21,-36 26,-37 47,-5c9,14 23,36 32,50l16,25l-43,0c-34,0 -47,-5 -57,-20z"/>
   <path id="svg_8" d="m1819.47252,4638.34156c0,-14 5,-25 10,-25c6,0 10,-30 10,-70c0,-40 -4,-70 -10,-70c-5,0 -10,-11 -10,-25c0,-24 2,-25 65,-25c63,0 65,1 65,25c0,14 -4,25 -10,25c-6,0 -10,30 -10,70c0,40 4,70 10,70c6,0 10,11 10,25c0,24 -2,25 -65,25c-63,0 -65,-1 -65,-25z"/>
   <path id="svg_9" d="m1326.47252,4540.34156c-20,-56 -37,-106 -37,-110c0,-5 17,-7 37,-5c35,3 37,5 58,68c21,61 21,67 6,108c-8,23 -18,42 -21,42c-3,0 -22,-46 -43,-103z"/>
   <path id="svg_10" d="m1129.47252,4513.34156l0,-90l40,0l40,0l0,90l0,90l-40,0l-40,0l0,-90z"/>
  </g>
 </g>
</svg>